<svg version="1.1" id="Layer_1" xmlns="http://www.w3.org/2000/svg" xmlns:xlink="http://www.w3.org/1999/xlink" x="0px" y="0px"
	 width="100%" viewBox="0 0 992 992" enable-background="new 0 0 992 992" xml:space="preserve">
<path fill="#000000" opacity="1.000000" stroke="none" 
	d="
M458.460632,993.000000 
	C455.729980,968.596436 454.660248,944.207886 457.292786,919.726624 
	C458.248199,910.841553 459.994873,901.994629 459.893921,892.595764 
	C449.967499,890.852722 440.164795,889.188843 430.386719,887.391113 
	C425.184143,886.434631 423.089203,883.938965 423.722290,879.881104 
	C424.306305,876.138000 427.673431,874.438904 432.691223,875.269836 
	C469.815979,881.417908 507.035675,886.338379 544.766602,887.149231 
	C564.095032,887.564636 583.414368,887.821411 602.732117,887.574768 
	C626.854675,887.266846 650.405945,883.765442 672.999268,874.572266 
	C694.339722,865.888733 707.744202,851.764221 708.742493,827.667908 
	C709.134399,818.209045 710.454956,808.788757 711.345764,799.350220 
	C711.423401,798.527771 711.562927,797.677795 710.320374,796.514404 
	C703.778137,796.802307 696.681946,797.010315 689.599915,797.448364 
	C675.979065,798.290771 662.371948,799.359070 648.748657,800.155212 
	C634.797363,800.970459 620.802307,801.203186 606.885193,802.384033 
	C595.778137,803.326416 587.285767,798.178528 579.042358,792.119202 
	C576.595215,790.320435 574.402527,789.650085 571.344238,789.675171 
	C550.373535,789.847717 529.411865,792.144897 508.438232,790.247742 
	C502.506866,789.711060 496.879578,787.667969 490.332397,785.451477 
	C495.229919,782.100708 500.190887,782.218811 504.651855,781.023987 
	C508.294281,780.048462 512.232056,779.895386 516.041870,779.872925 
	C534.206116,779.765747 552.372070,779.742249 570.535706,779.897156 
	C574.458862,779.930542 576.989258,778.606018 579.236450,775.374695 
	C585.047180,767.018982 593.315369,761.942139 603.310669,760.858276 
	C631.256409,757.827881 659.263184,755.387695 687.325256,753.631104 
	C694.960327,753.153198 702.569824,752.275330 710.202759,751.750061 
	C712.745544,751.575012 713.680237,750.500305 713.759094,748.038635 
	C713.977600,741.214844 714.510925,734.398682 714.629456,727.574524 
	C715.141663,698.090210 715.527893,668.603760 716.007751,639.118835 
	C716.181213,628.459778 716.529846,617.803650 716.720032,607.144775 
	C716.843872,600.208191 716.780029,600.204102 710.010986,601.144958 
	C686.161255,604.459900 662.151611,604.291260 638.189453,603.766846 
	C616.194214,603.285400 594.203064,603.290283 572.212280,603.206238 
	C523.717834,603.020752 475.221313,603.302307 426.727661,603.034546 
	C408.751099,602.935303 390.765808,602.093445 372.810181,601.117798 
	C351.145081,599.940674 333.494598,589.947632 317.868286,575.445129 
	C305.420258,563.892334 296.800629,549.731262 288.911804,535.013672 
	C280.176605,518.717041 271.526001,502.371796 263.124023,485.902100 
	C261.037598,481.812286 258.844788,480.870544 254.516769,482.330963 
	C235.037949,488.903687 222.116852,501.806976 216.771561,521.654236 
	C211.906082,539.719849 209.310699,558.216492 209.626526,576.949219 
	C209.832031,589.138000 211.073898,601.282104 219.117920,611.450256 
	C225.718994,619.794312 234.167633,625.335999 244.728714,626.456604 
	C263.311829,628.428467 281.930634,629.454651 300.100189,623.202148 
	C303.692627,621.965881 307.173889,622.337708 308.835144,626.532410 
	C310.207367,629.997253 308.247162,633.514709 303.966339,634.952271 
	C299.871246,636.327332 295.694550,637.512878 291.482788,638.469238 
	C288.339508,639.182922 287.093262,640.682007 287.275360,643.994019 
	C288.134552,659.619934 288.803131,675.256287 289.558533,690.888000 
	C290.056763,701.197144 290.694336,711.500793 291.083282,721.813843 
	C292.396210,756.626099 291.707855,791.441895 291.002655,826.252563 
	C290.513458,850.398438 289.822693,874.540833 289.100311,898.681213 
	C288.168732,929.812195 287.115631,960.939514 286.057434,992.534180 
	C282.307098,993.000000 278.614166,993.000000 274.460632,993.000000 
	C273.500305,975.006897 274.647491,957.041138 275.274261,939.080383 
	C275.744568,925.603210 275.705933,912.115723 276.477722,898.632446 
	C277.495667,880.849121 276.973022,862.979675 277.908447,845.189026 
	C279.151337,821.551270 278.987915,797.888977 279.311859,774.254211 
	C279.704071,745.634216 278.835052,716.973206 277.022797,688.369629 
	C276.117432,674.080505 275.378540,659.775879 274.912048,645.466919 
	C274.774017,641.232666 273.257904,639.981445 269.249725,640.224487 
	C260.413391,640.760193 251.564896,640.203369 242.841675,638.903259 
	C219.953873,635.492004 202.291870,617.299255 198.687607,593.985535 
	C195.591873,573.961304 197.530518,554.171143 201.180008,534.430908 
	C202.878342,525.244629 204.757294,516.100403 208.660599,507.564880 
	C217.109756,489.088684 231.354126,477.038055 250.528564,470.785370 
	C253.796432,469.719757 256.059174,468.233002 257.368744,464.991241 
	C258.423035,462.381348 259.633026,459.681061 261.402008,457.539734 
	C268.969818,448.379089 270.331940,437.932617 270.159576,426.350372 
	C269.817688,403.378845 270.260651,380.377502 271.576599,357.416199 
	C271.709381,355.099365 271.903046,352.759979 270.625763,350.600128 
	C265.108856,341.271027 264.892029,331.107208 265.340149,320.626007 
	C265.894958,307.649170 265.520111,294.635529 265.778687,281.642426 
	C266.293457,255.779129 271.425568,231.190521 285.072876,208.688187 
	C304.371094,176.868393 332.234894,156.256424 367.179138,144.697357 
	C393.520538,135.984009 420.726227,131.249146 448.166412,127.727043 
	C458.064758,126.456528 467.941315,124.928642 477.941406,124.611252 
	C480.409607,124.532913 482.126831,123.335915 483.951294,121.619972 
	C498.555695,107.884079 515.599365,101.589363 535.673035,105.748329 
	C544.945190,107.669380 552.347290,113.248108 559.126587,119.479675 
	C562.471252,122.554176 566.004150,123.690910 570.383240,123.705757 
	C589.389893,123.770187 608.382202,124.958160 627.070557,128.237457 
	C661.126953,134.213440 686.036926,153.602142 702.692322,183.434036 
	C714.602844,204.767380 723.706787,227.290466 726.296204,251.919586 
	C726.719604,255.946899 729.355042,255.603180 732.035645,255.609634 
	C749.700134,255.652069 767.366089,255.559967 785.028870,255.751419 
	C817.605469,256.104523 849.263489,261.681885 879.877991,272.932861 
	C883.646057,274.317596 887.241028,276.074921 890.478088,278.468414 
	C896.234253,282.724640 897.425903,288.534637 893.817871,294.715363 
	C891.253540,299.108185 887.562622,302.475433 883.650513,305.624817 
	C869.889160,316.703369 853.916321,323.168915 837.135254,327.970398 
	C805.406128,337.048859 773.213440,343.889801 740.470337,348.095337 
	C729.284363,349.532043 729.357727,349.540283 729.999512,360.517731 
	C730.291016,365.504517 730.285461,370.511322 730.316895,375.509705 
	C730.336975,378.702545 731.548462,380.786102 734.727234,381.918640 
	C755.345764,389.264893 763.474060,405.423340 765.198853,425.837952 
	C767.948730,458.385956 769.088684,490.993195 768.269287,523.657898 
	C767.922485,537.483582 766.668701,551.262573 765.010010,564.959534 
	C762.955139,581.927856 752.690186,592.286987 736.272339,596.169861 
	C730.799194,597.464294 729.281799,599.850952 729.212280,605.345459 
	C728.687744,646.824585 727.814148,688.299377 727.008423,729.774780 
	C726.911438,734.766113 726.692810,739.762573 726.299500,744.738342 
	C725.997375,748.561035 727.204163,750.270264 731.320374,749.940186 
	C747.246826,748.662903 763.189270,747.586853 779.122375,746.391052 
	C792.892761,745.357666 806.653687,744.193054 820.429016,743.233643 
	C825.393188,742.887878 827.624451,744.912231 828.415283,749.971008 
	C830.083008,760.639526 833.538513,770.979187 834.355103,781.795349 
	C834.785034,787.489685 833.334167,788.951904 827.760071,789.288147 
	C794.697449,791.282166 761.638428,793.335693 728.570740,795.240479 
	C725.431396,795.421326 724.184204,796.522278 723.909058,799.625732 
	C722.792786,812.216675 721.450317,824.774719 719.786377,837.320190 
	C716.941833,858.765808 704.664856,872.899902 686.163330,882.000366 
	C664.725647,892.544983 641.896484,898.114624 617.923096,899.388794 
	C586.926086,901.036316 555.962036,900.205872 524.993591,899.125427 
	C509.522400,898.585632 494.114319,896.914978 478.774323,894.899170 
	C474.113556,894.286682 472.843658,895.412170 472.121002,899.967590 
	C467.259338,930.613953 467.960938,961.346802 470.024048,992.563721 
	C466.307098,993.000000 462.614166,993.000000 458.460632,993.000000 
M500.499725,590.659729 
	C514.325317,590.479248 528.151550,590.113647 541.976440,590.158386 
	C567.800232,590.241943 593.623718,590.781311 619.446472,590.725952 
	C646.092590,590.668884 672.785034,592.158630 699.372131,589.637085 
	C712.093018,588.430542 724.857910,586.930359 737.082458,582.687805 
	C746.231018,579.512695 751.446350,573.036377 752.508972,563.637207 
	C753.872437,551.577637 755.297791,539.461243 755.507690,527.348755 
	C755.911560,504.040771 756.631775,480.702576 754.743408,457.410614 
	C753.735229,444.975189 752.982483,432.508484 751.553894,420.120575 
	C750.017151,406.795319 742.634338,397.699524 729.773193,393.559204 
	C719.118835,390.129425 708.034790,388.381073 696.949646,387.468689 
	C672.365723,385.445251 647.675049,385.927094 623.033997,385.530457 
	C595.556030,385.088196 568.063110,385.005890 540.571350,385.793152 
	C515.762817,386.503601 490.936554,386.359741 466.115601,386.936523 
	C429.857697,387.779114 394.069702,392.026093 358.633209,399.406647 
	C344.301941,402.391510 329.740936,405.297699 317.271454,413.570435 
	C296.969208,427.039734 282.382355,445.704224 270.415894,466.628693 
	C268.949677,469.192505 269.598236,471.333191 270.772614,473.670776 
	C282.962555,497.934601 295.097565,522.249146 309.247070,545.435913 
	C319.714142,562.588257 334.089996,575.664734 352.760925,583.856934 
	C365.571411,589.477783 379.196869,589.038208 392.555481,589.508545 
	C428.184326,590.763062 463.844604,590.886963 500.499725,590.659729 
M607.161743,261.631744 
	C616.624207,260.980927 626.084961,260.304932 635.549500,259.685852 
	C646.672791,258.958252 657.798401,258.265106 668.924988,257.588989 
	C672.564026,257.367889 674.308655,255.718216 674.080750,251.869629 
	C672.937439,232.562073 671.611938,213.231247 664.567566,194.988754 
	C658.364197,178.924255 648.986267,164.499649 639.993958,149.879471 
	C636.736084,144.582672 632.866150,141.380661 626.720032,140.775406 
	C623.086060,140.417542 619.485901,139.728607 615.858826,139.285202 
	C598.488892,137.161774 581.026855,136.527786 563.555115,135.856430 
	C521.879761,134.255005 480.343567,135.315247 439.027679,141.485641 
	C436.567932,141.852997 434.761078,142.980652 433.436493,145.175278 
	C426.555176,156.576630 419.929840,168.107666 413.624084,179.850525 
	C399.693024,205.793594 391.936859,233.347992 390.111511,262.706879 
	C389.162170,277.976624 387.318604,293.193756 386.509949,308.468048 
	C386.103821,316.138550 384.447632,323.852966 385.794464,332.145020 
	C390.433716,329.495300 394.593475,327.109375 398.764191,324.742767 
	C400.208771,323.923065 401.817719,322.618988 403.386841,323.337402 
	C406.473785,324.750793 408.838165,323.340424 411.366608,322.079834 
	C435.652374,309.972046 459.982422,298.013672 485.301880,288.095032 
	C524.249390,272.837769 564.583008,264.345398 607.161743,261.631744 
M434.865356,324.390228 
	C423.127045,330.690063 410.689972,335.733215 399.284943,343.144379 
	C401.216644,345.363007 403.002808,344.835022 404.563690,344.779846 
	C424.199188,344.085846 443.881439,343.960602 463.456238,342.451172 
	C514.455566,338.518555 565.577087,337.790253 616.650574,335.816711 
	C635.474915,335.089325 654.280396,336.487183 673.096191,336.803558 
	C692.239441,337.125458 711.439941,338.348572 730.517212,336.454346 
	C762.875305,333.241455 794.693176,326.811401 826.051697,318.246246 
	C842.782166,313.676605 859.395447,308.640503 873.484436,297.858826 
	C876.851196,295.282349 880.512390,292.935913 882.278870,288.873322 
	C880.707764,286.797821 878.718506,285.981079 876.691589,285.184052 
	C850.562622,274.909241 823.324951,269.462097 795.403015,268.579987 
	C761.446533,267.507263 727.457458,267.591583 693.479492,268.959015 
	C659.721802,270.317505 626.019836,272.412445 592.367065,275.336121 
	C568.252258,277.431183 544.591797,281.969604 521.354797,288.763794 
	C491.495453,297.494232 463.432678,310.568207 434.865356,324.390228 
M373.678589,315.444397 
	C375.127045,295.030273 376.028412,274.557281 378.216797,254.222763 
	C379.669403,240.725235 381.596527,227.140152 385.845825,214.122467 
	C393.111877,191.863190 403.892426,171.225693 415.486816,150.983215 
	C416.438721,149.321396 417.643127,147.746185 417.701233,145.375610 
	C416.281586,145.532272 415.141144,145.582153 414.030945,145.792099 
	C398.160034,148.793320 382.468353,152.491699 367.165619,157.736237 
	C347.954010,164.320480 330.836273,174.560349 316.393982,188.703110 
	C294.483307,210.159332 281.217041,235.990082 279.098694,267.055176 
	C277.614014,288.827911 277.920593,310.639496 277.468567,332.431610 
	C277.280457,341.500549 281.751801,347.178345 288.802917,348.469940 
	C292.875153,349.215912 297.007477,349.797150 301.214813,349.573486 
	C321.657806,348.486725 342.018280,345.686798 362.559814,346.590546 
	C363.708710,346.641052 364.886505,346.423737 366.027069,346.206390 
	C370.353668,345.381958 372.664825,342.981659 372.751862,338.331329 
	C372.888947,331.009216 373.338623,323.692963 373.678589,315.444397 
M294.884460,415.374786 
	C306.302765,404.152557 319.807465,396.631256 335.215912,392.354828 
	C367.244354,383.465698 400.025269,378.880920 433.006653,375.874939 
	C461.375153,373.289368 489.905060,373.565033 518.367188,373.123688 
	C553.845581,372.573547 589.337646,372.776428 624.823242,372.867767 
	C647.135010,372.925201 669.436707,373.568268 691.735474,374.515442 
	C700.211670,374.875458 708.464111,376.799164 717.218262,377.375946 
	C718.557922,368.764069 717.018188,360.538513 716.545715,352.310547 
	C716.415894,350.049500 714.276672,350.215057 712.628479,350.251068 
	C689.633057,350.753387 666.698730,348.998444 643.734497,348.464081 
	C613.756470,347.766510 583.818848,349.659302 553.880676,351.060944 
	C522.949402,352.509033 492.014404,353.889648 461.074799,355.145233 
	C431.796234,356.333405 402.493591,357.014160 373.233917,358.539948 
	C360.595154,359.199005 347.946381,359.037201 335.304871,359.960785 
	C320.231781,361.062042 305.128479,362.958710 289.947784,361.270447 
	C283.786530,360.585236 283.509613,360.783142 283.375305,366.937164 
	C282.979248,385.085144 282.673035,403.235229 282.397278,421.385498 
	C282.373871,422.925720 281.743622,424.751007 284.585724,426.705017 
	C287.753387,423.196136 291.062347,419.530731 294.884460,415.374786 
M787.124146,783.592773 
	C791.607361,783.294861 796.089294,782.976318 800.574097,782.704041 
	C806.886414,782.320923 813.199768,781.950928 819.514832,781.616333 
	C823.391541,781.410889 825.256104,780.136353 824.141541,775.660278 
	C822.657898,769.701965 821.679443,763.598450 820.824036,757.509583 
	C820.214722,753.173157 818.246277,751.666809 813.827332,752.036316 
	C798.247070,753.339294 782.639221,754.309875 767.046021,755.462585 
	C753.611755,756.455627 740.154236,757.244568 726.758423,758.623230 
	C703.750854,760.991150 680.681396,762.519165 657.629456,764.299255 
	C640.553284,765.617798 623.482788,767.012878 606.402649,768.277649 
	C603.406555,768.499512 602.534058,770.063171 602.230225,772.763245 
	C601.492615,779.319641 603.562622,785.245483 605.870056,791.172424 
	C606.780212,793.510437 608.588928,793.718018 610.709167,793.774292 
	C616.052673,793.916077 621.323242,793.138794 626.626831,792.749451 
	C644.716553,791.421265 662.815186,790.213501 680.910889,788.968079 
	C682.235229,788.876892 683.005920,788.582275 683.972351,787.218506 
	C686.406982,783.782959 699.697266,782.301331 702.096375,785.441101 
	C704.201538,788.196167 706.409668,787.923889 708.926453,787.790955 
	C734.680115,786.430908 760.431396,785.024475 787.124146,783.592773 
M677.821350,169.684891 
	C671.860657,163.684311 665.694153,157.950867 658.031067,154.050751 
	C658.988892,156.941284 660.392273,159.377777 661.756470,161.836014 
	C669.601013,175.971497 677.283813,190.168411 680.830017,206.164474 
	C683.935913,220.174255 685.605347,234.359314 686.300232,248.673553 
	C686.678650,256.469788 687.496216,257.186737 695.291626,256.614685 
	C699.606812,256.298035 703.923828,255.972733 708.245911,255.794571 
	C713.811340,255.565140 714.344482,255.028275 713.492188,249.659439 
	C712.002502,240.274719 709.954773,231.043457 706.498962,222.142517 
	C699.307800,203.620651 691.838928,185.267426 677.821350,169.684891 
M517.264587,117.644226 
	C513.137756,118.515923 508.896698,119.096123 504.886444,122.385788 
	C517.576904,122.385788 529.504150,122.385788 542.269714,122.385788 
	C534.405823,116.565697 526.340210,116.626526 517.264587,117.644226 
z"/>
<path fill="#000000" opacity="1.000000" stroke="none" 
	d="
M539.165405,654.154358 
	C530.198975,651.668213 522.337158,647.678406 514.635315,643.361877 
	C510.135040,640.839722 508.650574,637.373108 510.368042,634.051453 
	C512.234497,630.441711 516.108459,629.529480 520.719238,632.480286 
	C540.378601,645.061707 561.726440,645.749451 583.751038,641.774841 
	C590.780640,640.506226 596.597412,636.442810 602.513489,632.721375 
	C603.780212,631.924622 604.979797,631.017212 606.268799,630.260559 
	C609.617126,628.294861 612.726013,628.524841 615.027405,631.833313 
	C617.413452,635.263367 616.156799,638.314758 613.126587,640.497314 
	C604.309631,646.848267 595.126465,652.631592 584.188904,654.533386 
	C569.321716,657.118408 554.421936,657.331909 539.165405,654.154358 
z"/>
<path fill="#000000" opacity="1.000000" stroke="none" 
	d="
M658.712158,550.895386 
	C608.740295,551.477844 559.237732,551.622803 509.745850,550.779175 
	C486.580627,550.384338 463.428650,551.832703 440.291992,550.924438 
	C421.001099,550.167175 401.675842,550.814941 382.404694,548.626648 
	C366.691010,546.842285 363.011627,537.242371 363.114594,523.956116 
	C363.220367,510.314117 363.960205,496.665771 364.807281,483.044159 
	C365.508575,471.767548 366.378937,460.499359 368.408081,449.332489 
	C369.968323,440.746399 374.995453,436.236420 383.239227,434.709900 
	C396.362366,432.279907 409.633484,431.348938 422.939056,430.675232 
	C464.411621,428.575287 505.918152,430.376617 547.396423,429.520630 
	C571.223816,429.028870 595.053406,428.732880 618.867920,429.157837 
	C640.327881,429.540833 661.856201,428.953735 683.227173,431.769043 
	C685.536682,432.073273 687.843567,432.404510 690.143555,432.773499 
	C699.251831,434.234802 704.085388,438.863831 705.250549,448.140167 
	C707.418396,465.398132 706.226135,482.751587 705.979065,500.054047 
	C705.829651,510.518036 706.048706,521.057739 704.309814,531.447693 
	C703.818237,534.384705 703.109558,537.354004 701.994995,540.103577 
	C699.773193,545.584778 695.864014,548.737976 689.626282,549.493347 
	C679.491028,550.720825 669.296814,549.734497 658.712158,550.895386 
M547.861267,528.069763 
	C550.014526,529.282715 552.387390,529.140747 554.700317,529.023376 
	C562.055786,528.650024 569.372559,529.268433 576.635620,530.170715 
	C582.974487,530.958252 589.226074,531.262207 595.534241,530.140320 
	C597.787781,529.739563 600.508423,530.213440 601.591064,527.571411 
	C602.793762,524.636414 600.503845,522.696228 598.643921,521.262573 
	C591.376099,515.660461 591.184204,508.197052 592.169373,500.066254 
	C594.820068,478.189819 606.536438,462.592499 625.109314,451.597687 
	C626.539612,450.750946 628.304871,450.017853 627.953674,447.964111 
	C627.644226,446.154388 626.147644,445.162323 624.457947,444.774628 
	C622.848877,444.405457 621.174072,444.230316 619.520325,444.162872 
	C607.271912,443.662994 595.481628,446.206177 583.995667,449.205109 
	C586.815002,442.043335 586.708740,441.911224 578.116394,441.989288 
	C566.120117,442.098267 554.123230,442.286255 542.127563,442.233246 
	C538.390686,442.216736 535.519409,443.293121 532.733093,445.873688 
	C523.445679,454.475433 515.238037,464.045319 506.949524,473.565491 
	C495.487762,486.730499 483.593475,499.518158 472.799408,513.262756 
	C470.262451,516.493164 468.082458,521.038208 463.831482,521.512451 
	C458.380249,522.120483 456.248138,525.653076 453.895935,529.207703 
	C453.550262,530.683044 455.229126,531.021667 455.216492,531.839661 
	C455.117035,538.282227 459.700531,537.851379 463.827911,537.615662 
	C472.283112,537.132751 480.835754,537.380188 489.030975,534.563599 
	C491.245880,533.802368 494.049011,533.136658 495.805237,534.695251 
	C500.512878,538.873108 506.089752,537.485413 511.431244,538.048950 
	C516.951599,538.631226 520.351135,536.286438 523.414856,531.891052 
	C531.504089,520.286011 539.938843,508.920105 548.337708,497.534058 
	C549.852173,495.480927 551.850952,493.785004 554.593506,490.910126 
	C553.524963,497.588013 550.361694,501.478577 547.138000,505.156281 
	C540.689819,512.512390 540.573608,519.916260 547.861267,528.069763 
M609.715942,474.225922 
	C604.606506,481.586395 601.051758,489.525787 600.045227,498.557373 
	C598.753967,510.144226 598.652771,510.125275 610.335999,509.748962 
	C616.916504,509.536957 623.200623,508.921936 627.682556,502.963043 
	C629.381165,500.704742 632.114380,499.224579 634.376038,497.389771 
	C634.724426,497.762909 635.072815,498.136047 635.421204,498.509186 
	C628.806335,505.906708 622.632507,513.708923 615.262939,519.829163 
	C612.857727,519.780151 611.960815,517.144775 609.639465,518.186096 
	C609.740906,520.156494 612.474487,520.725708 612.119263,522.831970 
	C610.313232,526.427734 606.439331,527.871582 603.924805,530.716248 
	C602.627991,532.183350 600.876099,533.672241 601.510254,535.904968 
	C602.226624,538.427246 604.688354,538.015320 606.565125,538.164062 
	C617.214355,539.008057 627.861023,538.581360 638.519409,538.122864 
	C642.634338,537.945801 645.893372,536.653015 648.731567,533.765442 
	C653.993469,528.412048 659.863281,523.872925 666.448730,520.180237 
	C668.044617,519.285339 671.784302,518.252747 668.683350,514.674866 
	C667.524597,513.337891 669.242126,511.957611 670.190430,510.854218 
	C676.155701,503.912964 682.195923,497.035370 688.097229,490.040375 
	C690.219360,487.524872 693.318604,485.215424 693.440369,481.804199 
	C693.743042,473.323853 693.630493,464.813690 693.276917,456.332489 
	C693.141418,453.082092 689.434448,450.937500 687.245605,452.533142 
	C680.709656,457.297852 673.551208,461.321289 668.734009,468.201233 
	C667.213623,470.372589 665.350952,472.687103 661.755981,472.892792 
	C660.729736,467.367706 659.624939,462.037994 658.777222,456.667725 
	C658.053894,452.085144 655.690552,450.729980 651.132019,451.345245 
	C634.582520,453.578949 620.570129,460.276794 609.715942,474.225922 
M447.379059,462.134216 
	C438.432556,453.488892 437.054413,453.362549 425.998810,458.387451 
	C412.376434,464.579041 401.845062,474.722290 391.541351,485.103363 
	C381.462189,495.258148 381.532806,496.318451 388.129822,509.064240 
	C390.491699,513.627563 393.764801,516.018860 399.129395,516.133240 
	C416.455170,516.502441 433.729004,515.492065 450.996460,514.447266 
	C455.018066,514.203979 459.267639,513.857727 463.805786,511.105408 
	C458.014954,504.542816 461.916809,498.267822 464.261597,491.925781 
	C465.470123,488.657043 467.192902,485.591400 467.668976,482.049591 
	C468.526611,475.669006 467.647125,473.950073 461.506195,472.169678 
	C455.822418,470.521820 451.396057,467.273682 447.379059,462.134216 
M413.112000,451.199158 
	C412.318634,450.592468 411.609375,449.677246 410.716980,449.434082 
	C407.380646,448.525085 406.440125,443.635040 402.081573,444.438965 
	C398.327576,445.131348 394.546112,445.829224 390.747009,446.087830 
	C384.348907,446.523376 381.202545,450.405457 379.967804,456.055603 
	C379.050385,460.253448 378.762054,464.595154 378.313965,468.885345 
	C378.180450,470.163269 378.063568,471.667145 379.489838,472.453247 
	C381.052887,473.314697 382.311737,472.368378 383.638458,471.629303 
	C385.595154,470.539337 386.520905,467.874695 389.129608,467.875000 
	C390.923828,469.391541 388.415924,471.552032 390.397919,473.238708 
	C397.825470,468.123596 405.362762,463.041199 412.764221,457.768250 
	C414.928192,456.226562 416.440369,454.106232 413.112000,451.199158 
M670.563232,455.323181 
	C669.563232,457.039490 668.077637,458.967102 670.843445,460.232147 
	C672.190552,460.848267 673.451721,459.712524 673.710632,458.236847 
	C674.047852,456.314423 674.080444,454.365967 670.563232,455.323181 
z"/>
<path fill="#000000" opacity="1.000000" stroke="none" 
	d="
M330.279694,551.509399 
	C326.653412,535.355469 323.430695,519.536011 322.086792,503.426361 
	C321.140930,492.088043 322.827240,480.810577 323.986908,469.575714 
	C325.539703,454.532623 327.775482,439.560028 329.717133,424.557068 
	C329.802643,423.896545 329.785278,423.205872 329.978638,422.579468 
	C330.496490,420.901794 330.502502,418.478302 332.982605,418.666595 
	C335.934204,418.890656 335.377350,421.518860 335.230103,423.357910 
	C334.220917,435.962463 333.227203,448.571411 331.951355,461.150848 
	C329.435333,485.958038 329.775085,510.678284 333.702637,535.321167 
	C334.749023,541.886658 335.902649,548.434937 336.958435,554.998962 
	C337.266571,556.914673 338.129761,559.356140 335.503754,560.121765 
	C332.485291,561.001770 332.059906,558.348694 331.481110,556.264343 
	C331.080719,554.822449 330.760712,553.358215 330.279694,551.509399 
z"/>
</svg>